<?xml version="1.0" encoding="UTF-8" standalone="no"?>
<svg
   xmlns:dc="http://purl.org/dc/elements/1.1/"
   xmlns:cc="http://creativecommons.org/ns#"
   xmlns:rdf="http://www.w3.org/1999/02/22-rdf-syntax-ns#"
   xmlns:svg="http://www.w3.org/2000/svg"
   xmlns="http://www.w3.org/2000/svg"
   xmlns:sodipodi="http://sodipodi.sourceforge.net/DTD/sodipodi-0.dtd"
   xmlns:inkscape="http://www.inkscape.org/namespaces/inkscape"
   width="16"
   height="12"
   fill="currentColor"
   class="bi bi-card-list"
   viewBox="0 0 16 12"
   version="1.1"
   id="svg837"
   sodipodi:docname="card-list.svg"
   inkscape:version="1.0.2 (e86c8708, 2021-01-15)">
  <metadata
     id="metadata843">
    <rdf:RDF>
      <cc:Work
         rdf:about="">
        <dc:format>image/svg+xml</dc:format>
        <dc:type
           rdf:resource="http://purl.org/dc/dcmitype/StillImage" />
        <dc:title></dc:title>
      </cc:Work>
    </rdf:RDF>
  </metadata>
  <defs
     id="defs841" />
  <sodipodi:namedview
     pagecolor="#ffffff"
     bordercolor="#666666"
     borderopacity="1"
     objecttolerance="10"
     gridtolerance="10"
     guidetolerance="10"
     inkscape:pageopacity="0"
     inkscape:pageshadow="2"
     inkscape:window-width="870"
     inkscape:window-height="480"
     id="namedview839"
     showgrid="false"
     lock-margins="true"
     fit-margin-top="0"
     fit-margin-left="0"
     fit-margin-right="0"
     fit-margin-bottom="0"
     inkscape:zoom="9.4939919"
     inkscape:cx="8"
     inkscape:cy="6"
     inkscape:window-x="0"
     inkscape:window-y="23"
     inkscape:window-maximized="0"
     inkscape:current-layer="svg837" />
  <path
     d="M 14.5,1 A 0.5,0.5 0 0 1 15,1.5 v 9 A 0.5,0.5 0 0 1 14.5,11 H 1.5 A 0.5,0.5 0 0 1 1,10.5 v -9 A 0.5,0.5 0 0 1 1.5,1 Z M 1.5,0 A 1.5,1.5 0 0 0 0,1.5 v 9 A 1.5,1.5 0 0 0 1.5,12 h 13 A 1.5,1.5 0 0 0 16,10.5 v -9 A 1.5,1.5 0 0 0 14.5,0 Z"
     id="path833" />
  <path
     d="M 5,6 A 0.5,0.5 0 0 1 5.5,5.5 h 7 a 0.5,0.5 0 0 1 0,1 h -7 A 0.5,0.5 0 0 1 5,6 Z M 5,3.5 A 0.5,0.5 0 0 1 5.5,3 h 7 a 0.5,0.5 0 0 1 0,1 h -7 A 0.5,0.5 0 0 1 5,3.5 Z m 0,5 A 0.5,0.5 0 0 1 5.5,8 h 7 a 0.5,0.5 0 0 1 0,1 h -7 A 0.5,0.5 0 0 1 5,8.5 Z m -1,-5 a 0.5,0.5 0 1 1 -1,0 0.5,0.5 0 0 1 1,0 z M 4,6 A 0.5,0.5 0 1 1 3,6 0.5,0.5 0 0 1 4,6 Z m 0,2.5 a 0.5,0.5 0 1 1 -1,0 0.5,0.5 0 0 1 1,0 z"
     id="path835" />
</svg>
