<?xml version="1.0" encoding="UTF-8" standalone="no"?>
<svg
   xmlns:dc="http://purl.org/dc/elements/1.1/"
   xmlns:cc="http://creativecommons.org/ns#"
   xmlns:rdf="http://www.w3.org/1999/02/22-rdf-syntax-ns#"
   xmlns:svg="http://www.w3.org/2000/svg"
   xmlns="http://www.w3.org/2000/svg"
   xmlns:sodipodi="http://sodipodi.sourceforge.net/DTD/sodipodi-0.dtd"
   xmlns:inkscape="http://www.inkscape.org/namespaces/inkscape"
   width="13.000002"
   height="14.000894"
   fill="currentColor"
   class="bi bi-house-door"
   viewBox="0 0 13.000002 14.000894"
   version="1.1"
   id="svg835"
   sodipodi:docname="home.svg"
   inkscape:version="1.0.2 (e86c8708, 2021-01-15)">
  <metadata
     id="metadata841">
    <rdf:RDF>
      <cc:Work
         rdf:about="">
        <dc:format>image/svg+xml</dc:format>
        <dc:type
           rdf:resource="http://purl.org/dc/dcmitype/StillImage" />
        <dc:title></dc:title>
      </cc:Work>
    </rdf:RDF>
  </metadata>
  <defs
     id="defs839" />
  <sodipodi:namedview
     pagecolor="#ffffff"
     bordercolor="#666666"
     borderopacity="1"
     objecttolerance="10"
     gridtolerance="10"
     guidetolerance="10"
     inkscape:pageopacity="0"
     inkscape:pageshadow="2"
     inkscape:window-width="870"
     inkscape:window-height="480"
     id="namedview837"
     showgrid="false"
     fit-margin-top="0"
     fit-margin-left="0"
     fit-margin-right="0"
     fit-margin-bottom="0"
     inkscape:zoom="7.7115177"
     inkscape:cx="6.5000008"
     inkscape:cy="7.0008938"
     inkscape:window-x="0"
     inkscape:window-y="23"
     inkscape:window-maximized="0"
     inkscape:current-layer="svg835" />
  <path
     d="m 6.8540008,0.14689378 a 0.5,0.5 0 0 0 -0.708,0 l -6,6.00000002 A 0.5,0.5 0 0 0 7.974215e-7,6.5008938 v 7.0000002 a 0.5,0.5 0 0 0 0.5000000025785,0.5 h 4.5 a 0.5,0.5 0 0 0 0.5,-0.5 V 9.5008938 h 2 v 4.0000002 a 0.5,0.5 0 0 0 0.5,0.5 h 4.5000002 a 0.5,0.5 0 0 0 0.5,-0.5 V 6.5008938 a 0.5,0.5 0 0 0 -0.146,-0.354 l -1.354,-1.353 v -3.293 a 0.5,0.5 0 0 0 -0.5,-0.5 h -1 a 0.5,0.5 0 0 0 -0.5000002,0.5 v 1.293 z m -5.854,12.85400022 V 6.7078938 l 5.5,-5.5 5.5000002,5.5 V 13.000894 H 8.5000008 V 9.0008938 a 0.5,0.5 0 0 0 -0.5,-0.5 h -3 a 0.5,0.5 0 0 0 -0.5,0.5 v 4.0000002 z"
     id="path833" />
</svg>
