<?xml version="1.0" encoding="UTF-8" standalone="no"?>
<svg
   xmlns:dc="http://purl.org/dc/elements/1.1/"
   xmlns:cc="http://creativecommons.org/ns#"
   xmlns:rdf="http://www.w3.org/1999/02/22-rdf-syntax-ns#"
   xmlns:svg="http://www.w3.org/2000/svg"
   xmlns="http://www.w3.org/2000/svg"
   xmlns:sodipodi="http://sodipodi.sourceforge.net/DTD/sodipodi-0.dtd"
   xmlns:inkscape="http://www.inkscape.org/namespaces/inkscape"
   width="11.071508"
   height="11.070508"
   fill="currentColor"
   class="bi bi-link-45deg"
   viewBox="0 0 11.071508 11.070508"
   version="1.1"
   id="svg837"
   sodipodi:docname="link-45deg.svg"
   inkscape:version="1.0.2 (e86c8708, 2021-01-15)">
  <metadata
     id="metadata843">
    <rdf:RDF>
      <cc:Work
         rdf:about="">
        <dc:format>image/svg+xml</dc:format>
        <dc:type
           rdf:resource="http://purl.org/dc/dcmitype/StillImage" />
        <dc:title></dc:title>
      </cc:Work>
    </rdf:RDF>
  </metadata>
  <defs
     id="defs841" />
  <sodipodi:namedview
     pagecolor="#ffffff"
     bordercolor="#666666"
     borderopacity="1"
     objecttolerance="10"
     gridtolerance="10"
     guidetolerance="10"
     inkscape:pageopacity="0"
     inkscape:pageshadow="2"
     inkscape:window-width="1243"
     inkscape:window-height="662"
     id="namedview839"
     showgrid="false"
     fit-margin-top="0"
     fit-margin-left="0"
     fit-margin-right="0"
     fit-margin-bottom="0"
     inkscape:zoom="23.419128"
     inkscape:cx="5.5357541"
     inkscape:cy="6.0347541"
     inkscape:window-x="0"
     inkscape:window-y="23"
     inkscape:window-maximized="0"
     inkscape:current-layer="svg837" />
  <path
     d="m 2.2507541,4.5767541 -1.37200003,1.372 A 3.0002541,3.0002541 0 1 0 5.1217541,10.191754 l 1.828,-1.8289999 a 3,3 0 0 0 -0.828,-4.828 l -0.586,0.586 a 1.002,1.002 0 0 0 -0.154,0.199 2,2 0 0 1 0.861,3.337 l -1.827,1.828 a 2.0011122,2.0011122 0 1 1 -2.83,-2.83 l 0.793,-0.792 a 4.018,4.018 0 0 1 -0.128,-1.287 z"
     id="path833" />
  <path
     d="m 4.1217541,2.7067541 a 3,3 0 0 0 0.828,4.828 l 0.775,-0.776 a 2,2 0 0 1 -0.896,-3.346 l 1.827,-1.828 a 2.0011122,2.0011122 0 1 1 2.83,2.83 l -0.793,0.792 c 0.112,0.42 0.155,0.855 0.128,1.287 l 1.3719999,-1.372 A 3.0002541,3.0002541 0 1 0 5.9497541,0.87875407 Z"
     id="path835" />
</svg>
