<?xml version="1.0" encoding="UTF-8" standalone="no"?>
<svg
   xmlns:dc="http://purl.org/dc/elements/1.1/"
   xmlns:cc="http://creativecommons.org/ns#"
   xmlns:rdf="http://www.w3.org/1999/02/22-rdf-syntax-ns#"
   xmlns:svg="http://www.w3.org/2000/svg"
   xmlns="http://www.w3.org/2000/svg"
   xmlns:sodipodi="http://sodipodi.sourceforge.net/DTD/sodipodi-0.dtd"
   xmlns:inkscape="http://www.inkscape.org/namespaces/inkscape"
   width="65.553596mm"
   height="61.390453mm"
   viewBox="0 0 65.553596 61.390453"
   version="1.1"
   id="svg8"
   inkscape:version="1.0.2 (e86c8708, 2021-01-15)"
   sodipodi:docname="drawing.svg">
  <defs
     id="defs2" />
  <sodipodi:namedview
     id="base"
     pagecolor="#ffffff"
     bordercolor="#666666"
     borderopacity="1.0"
     inkscape:pageopacity="0.0"
     inkscape:pageshadow="2"
     inkscape:zoom="0.35"
     inkscape:cx="350.26289"
     inkscape:cy="481.02179"
     inkscape:document-units="mm"
     inkscape:current-layer="layer1"
     inkscape:document-rotation="0"
     showgrid="false"
     fit-margin-top="0"
     fit-margin-left="0"
     fit-margin-right="0"
     fit-margin-bottom="0"
     inkscape:window-width="1252"
     inkscape:window-height="715"
     inkscape:window-x="0"
     inkscape:window-y="23"
     inkscape:window-maximized="0" />
  <metadata
     id="metadata5">
    <rdf:RDF>
      <cc:Work
         rdf:about="">
        <dc:format>image/svg+xml</dc:format>
        <dc:type
           rdf:resource="http://purl.org/dc/dcmitype/StillImage" />
        <dc:title></dc:title>
      </cc:Work>
    </rdf:RDF>
  </metadata>
  <g
     inkscape:label="Layer 1"
     inkscape:groupmode="layer"
     id="layer1"
     transform="translate(-13.159609,-20.896319)">
    <path
       sodipodi:type="spiral"
       style="fill:none;fill-rule:evenodd;stroke:#000000;stroke-width:5.865;stroke-miterlimit:4;stroke-dasharray:none"
       id="path833"
       sodipodi:cx="43.089283"
       sodipodi:cy="53.672623"
       sodipodi:expansion="1"
       sodipodi:revolution="3"
       sodipodi:radius="34.360512"
       sodipodi:argument="-17.97068"
       sodipodi:t0="0"
       d="m 43.089283,53.672623 c 1.099164,1.326579 -1.245914,2.136139 -2.204863,1.826883 -2.598691,-0.838064 -2.706635,-4.277421 -1.448904,-6.236609 2.249787,-3.504526 7.235801,-3.472348 10.268355,-1.070925 4.450394,3.524185 4.265067,10.235873 0.692946,14.300101 -4.761076,5.416977 -13.250948,5.069552 -18.331847,0.314967 -6.393793,-5.983161 -5.880175,-16.273224 0.06301,-22.363593 7.197996,-7.376253 19.299565,-6.694363 26.395338,0.440992 8.362123,8.408769 7.51079,22.328443 -0.818971,30.427084 -9.617039,9.350202 -25.359014,8.328712 -34.45883,-1.19695 -10.33979,-10.823662 -9.147677,-28.390774 1.574929,-38.490576 12.029144,-11.330452 31.4234,-9.9674 42.522323,1.952908 12.321907,13.233802 10.78769,34.456679 -2.330888,46.554069" />
  </g>
</svg>
